<svg width="1920" height="592" viewBox="0 0 1920 592" fill="none" xmlns="http://www.w3.org/2000/svg">
<g clip-path="url(#clip0_28_9958)">
<path d="M1834.56 277.44H1819.79V314.273H1834.56V277.44Z" fill="#E8ADE3"></path>
<path d="M1854.13 277.44H1839.36V314.273H1854.13V277.44Z" fill="#FCAF4F"></path>
<path d="M1854.13 277.44H1839.36V314.273H1854.13V277.44Z" fill="#F98410"></path>
<path d="M1834.56 277.44H1819.79V314.273H1834.56V277.44Z" fill="#DC85D5"></path>
<path d="M1096.33 359.593V296.241H1143.81C1120.07 296.241 1120.07 359.593 1096.33 359.593Z" fill="#FFF8E9"></path>
<path d="M1024.62 236.089V296.241H963.934C982.604 296.241 989.784 273.47 999.62 255.939C1005.77 244.994 1012.95 236.089 1024.62 236.089Z" fill="#FFF8E9"></path>
<path d="M1024.62 236.089V296.241H963.934C982.604 296.241 989.784 273.47 999.62 255.939C1005.77 244.994 1012.95 236.089 1024.62 236.089Z" fill="#C533B9"></path>
<path opacity="0.5" d="M1024.31 236.089V296.241H963.627C982.297 296.241 989.477 273.47 999.314 255.939C1005.46 244.994 1012.64 236.089 1024.31 236.089Z" fill="#EF81EF"></path>
<path d="M1085.31 296.241H1024.62V236.089C1036.29 236.089 1043.47 244.994 1049.62 255.939C1059.45 273.46 1066.64 296.241 1085.31 296.241Z" fill="#E8ADE3"></path>
<g style="mix-blend-mode:multiply">
<path d="M1096.33 359.593V296.241H1143.81C1120.07 296.241 1120.07 359.593 1096.33 359.593Z" fill="#C533B9"></path>
</g>
<path d="M1048.85 296.25H1096.33V359.602C1072.59 359.602 1072.59 296.25 1048.85 296.25Z" fill="#4F144A"></path>
<g style="mix-blend-mode:multiply">
<path d="M1096.33 359.593V296.241H1143.81C1120.07 296.241 1120.07 359.593 1096.33 359.593Z" fill="#C533B9"></path>
</g>
<path d="M1024.62 236.089V296.241H1085.3C1066.63 296.241 1059.45 273.47 1049.61 255.939C1043.46 244.994 1036.28 236.089 1024.62 236.089Z" fill="#DC85D5"></path>
<path d="M477.935 170.873H451.417V207.706H477.935V170.873Z" fill="#9E2994"></path>
<path d="M477.87 170.873H451.417V207.706H477.87V170.873Z" fill="#761F6F"></path>
<path d="M208.037 170.873H146.268V207.706H208.037V170.873Z" fill="#C533B9"></path>
<path d="M208.037 170.873H146.268V207.706H208.037V170.873Z" fill="#9E2994"></path>
<path d="M86.3468 170.873H64.3793V207.706H86.3468V170.873Z" fill="#DC85D5"></path>
<path d="M86.3468 170.873H64.3793V207.706H86.3468V170.873Z" fill="#D15CC7"></path>
<path d="M47.3904 278.033H10.5054V314.866H47.3904V278.033Z" fill="#C533B9"></path>
<path d="M95.3381 278.033H76.9003V314.866H95.3381V278.033Z" fill="#E8ADE3"></path>
<path d="M95.3381 278.033H76.9003V314.866H95.3381V278.033Z" fill="#DC85D5"></path>
<path d="M47.3904 278.033H10.5054V314.866H47.3904V278.033Z" fill="#9E2994"></path>
<path d="M288.123 384.294H251.238V421.127H288.123V384.294Z" fill="#DC85D5"></path>
<path d="M206.272 384.294H187.834V421.127H206.272V384.294Z" fill="#C533B9"></path>
<path d="M166.637 384.294H158.045V421.127H166.637V384.294Z" fill="#DC85D5"></path>
<path d="M206.272 384.294H187.834V421.127H206.272V384.294Z" fill="#9E2994"></path>
<path d="M166.628 384.294H157.943V421.127H166.628V384.294Z" fill="#D15CC7"></path>
<path d="M288.123 384.294H251.238V421.127H288.123V384.294Z" fill="#D15CC7"></path>
<path d="M570.041 384.294H551.604V421.127H570.041V384.294Z" fill="#C533B9"></path>
<path d="M546.801 384.294H537.578V421.127H546.801V384.294Z" fill="#9E2994"></path>
<path d="M570.041 384.294H551.604V421.127H570.041V384.294Z" fill="#9E2994"></path>
<path d="M546.801 384.294H537.578V421.127H546.801V384.294Z" fill="#761F6F"></path>
<path d="M468.452 278.033H413.937V314.866H468.452V278.033Z" fill="#C533B9"></path>
<path d="M530.1 278.033H519.892V314.866H530.1V278.033Z" fill="#E8ADE3"></path>
<path d="M530.137 278.033H519.892V314.866H530.137V278.033Z" fill="#DC85D5"></path>
<path d="M1525.22 277.44H1509.63V314.273H1525.22V277.44Z" fill="#C533B9"></path>
<path d="M1589.25 277.44H1534.74V314.273H1589.25V277.44Z" fill="#C533B9"></path>
<path d="M1212.32 277.978H1202.11V314.811H1212.32V277.978Z" fill="#E8ADE3"></path>
<path d="M1499.77 277.44H1462.88V314.273H1499.77V277.44Z" fill="#FCAF4F"></path>
<path d="M1256.67 277.978H1219.79V314.811H1256.67V277.978Z" fill="#C533B9"></path>
<path d="M1588.99 277.44H1534.74V314.273H1588.99V277.44Z" fill="#9E2994"></path>
<path d="M1256.67 277.978H1219.79V314.811H1256.67V277.978Z" fill="#9E2994"></path>
<path d="M1212.36 277.978H1202.11V314.811H1212.36V277.978Z" fill="#DC85D5"></path>
<path d="M1606.42 277.978H1596.21V314.811H1606.42V277.978Z" fill="#E8ADE3"></path>
<path d="M1606.45 277.978H1596.21V314.811H1606.45V277.978Z" fill="#DC85D5"></path>
<path d="M1525.22 277.44H1509.63V314.273H1525.22V277.44Z" fill="#9E2994"></path>
<path d="M1499.77 277.44H1462.88V314.273H1499.77V277.44Z" fill="#F98410"></path>
<path d="M952.444 277.44H936.848V314.273H952.444V277.44Z" fill="#FCAF4F"></path>
<path d="M926.984 277.44H890.099V314.273H926.984V277.44Z" fill="#9E2994"></path>
<path d="M952.444 277.44H936.848V314.273H952.444V277.44Z" fill="#F98410"></path>
<path d="M926.984 277.44H890.099V314.273H926.984V277.44Z" fill="#761F6F"></path>
<path d="M1129.57 176.596C1129.57 175.101 1128.35 173.888 1126.86 173.888C1125.36 173.888 1124.14 175.101 1124.14 176.596C1124.14 178.092 1125.36 179.305 1126.86 179.305C1128.35 179.305 1129.57 178.092 1129.57 176.596Z" fill="#4F144A"></path>
<path d="M1150.45 176.596C1150.45 175.101 1149.23 173.888 1147.74 173.888C1146.24 173.888 1145.02 175.101 1145.02 176.596C1145.02 178.092 1146.24 179.305 1147.74 179.305C1149.23 179.305 1150.45 178.092 1150.45 176.596Z" fill="#C533B9"></path>
<path d="M1160.89 176.596C1160.89 175.101 1159.67 173.888 1158.18 173.888C1156.68 173.888 1155.46 175.101 1155.46 176.596C1155.46 178.092 1156.68 179.305 1158.18 179.305C1159.67 179.305 1160.89 178.092 1160.89 176.596Z" fill="#4F144A"></path>
<path d="M1129.57 186.503C1129.57 185.007 1128.35 183.794 1126.86 183.794C1125.36 183.794 1124.14 185.007 1124.14 186.503C1124.14 187.998 1125.36 189.211 1126.86 189.211C1128.35 189.211 1129.57 187.998 1129.57 186.503Z" fill="#4F144A"></path>
<path d="M1140.01 186.503C1140.01 185.007 1138.79 183.794 1137.3 183.794C1135.8 183.794 1134.58 185.007 1134.58 186.503C1134.58 187.998 1135.8 189.211 1137.3 189.211C1138.79 189.211 1140.01 187.998 1140.01 186.503Z" fill="#4F144A"></path>
<path d="M1150.45 186.503C1150.45 185.007 1149.23 183.794 1147.74 183.794C1146.24 183.794 1145.02 185.007 1145.02 186.503C1145.02 187.998 1146.24 189.211 1147.74 189.211C1149.23 189.211 1150.45 187.998 1150.45 186.503Z" fill="#4F144A"></path>
<path d="M1160.89 186.503C1160.89 185.007 1159.67 183.794 1158.18 183.794C1156.68 183.794 1155.46 185.007 1155.46 186.503C1155.46 187.998 1156.68 189.211 1158.18 189.211C1159.67 189.211 1160.89 187.998 1160.89 186.503Z" fill="#4F144A"></path>
<path d="M389.88 215.155H283.971C283.72 215.155 283.488 215.025 283.367 214.802L268.812 189.638C268.691 189.424 268.691 189.155 268.812 188.942L283.367 163.778C283.488 163.564 283.72 163.425 283.971 163.425H389.88C390.13 163.425 390.363 163.555 390.483 163.778L405.039 188.942C405.159 189.155 405.159 189.424 405.039 189.638L390.483 214.802C390.363 215.016 390.13 215.155 389.88 215.155ZM284.37 213.763H389.471L403.617 189.295L389.471 164.826H284.37L270.224 189.295L284.37 213.763Z" fill="#4F144A"></path>
<path d="M389.88 215.155C389.629 215.155 389.397 215.025 389.276 214.802L374.721 189.638C374.6 189.424 374.6 189.155 374.721 188.942L389.276 163.778C389.527 163.351 390.233 163.351 390.483 163.778L405.039 188.942C405.159 189.155 405.159 189.424 405.039 189.638L390.483 214.802C390.363 215.016 390.13 215.155 389.88 215.155ZM376.133 189.295L389.88 213.068L403.627 189.295L389.88 165.521L376.133 189.295Z" fill="#4F144A"></path>
<path d="M404.426 188.599H269.416V189.99H404.426V188.599Z" fill="#4F144A"></path>
<path d="M144.41 402.01H9.40002V403.401H144.41V402.01Z" fill="#4F144A"></path>
<path d="M461.532 428.575H355.623C355.373 428.575 355.14 428.445 355.02 428.222L340.464 403.058C340.344 402.845 340.344 402.576 340.464 402.362L355.02 377.198C355.14 376.984 355.373 376.845 355.623 376.845H461.532C461.783 376.845 462.015 376.975 462.136 377.198L476.691 402.362C476.812 402.576 476.812 402.845 476.691 403.058L462.136 428.222C462.015 428.436 461.783 428.575 461.532 428.575ZM356.032 427.184H461.133L475.279 402.715L461.133 378.246H356.032L341.885 402.715L356.032 427.184Z" fill="#4F144A"></path>
<path d="M461.532 428.575C461.281 428.575 461.049 428.445 460.928 428.222L446.373 403.058C446.252 402.845 446.252 402.576 446.373 402.362L460.928 377.198C461.179 376.762 461.885 376.762 462.136 377.198L476.691 402.362C476.812 402.576 476.812 402.845 476.691 403.058L462.136 428.222C462.015 428.436 461.783 428.575 461.532 428.575ZM447.785 402.705L461.532 426.479L475.279 402.705L461.532 378.932L447.785 402.705Z" fill="#4F144A"></path>
<path d="M476.087 402.01H341.077V403.401H476.087V402.01Z" fill="#4F144A"></path>
<path d="M295.851 296L281.305 321.164H175.397L160.841 296H295.851Z" fill="#E6E6E6"></path>
<path d="M160.841 296L175.397 270.836H281.305L295.851 296H160.841Z" fill="#E6E6E6"></path>
<path d="M281.296 321.86H175.387C175.136 321.86 174.904 321.73 174.783 321.508L160.228 296.343C160.108 296.13 160.108 295.861 160.228 295.648L174.783 270.483C174.904 270.27 175.136 270.131 175.387 270.131H281.296C281.547 270.131 281.779 270.26 281.9 270.483L296.455 295.648C296.576 295.861 296.576 296.13 296.455 296.343L281.9 321.508C281.779 321.721 281.547 321.86 281.296 321.86ZM175.796 320.469H280.896L295.043 296L280.896 271.531H175.796L161.649 296L175.796 320.469Z" fill="#4F144A"></path>
<path d="M281.296 321.86C281.045 321.86 280.813 321.73 280.692 321.508L266.137 296.343C266.016 296.13 266.016 295.861 266.137 295.648L280.692 270.483C280.943 270.056 281.649 270.056 281.9 270.483L296.455 295.648C296.576 295.861 296.576 296.13 296.455 296.343L281.9 321.508C281.779 321.721 281.547 321.86 281.296 321.86ZM267.558 296L281.305 319.773L295.052 296L281.305 272.227L267.558 296Z" fill="#4F144A"></path>
<path d="M295.851 295.304H160.841V296.696H295.851V295.304Z" fill="#4F144A"></path>
<path d="M628.931 188.599H493.921V189.99H628.931V188.599Z" fill="#4F144A"></path>
<path d="M1409.38 296L1394.82 321.164H1288.91L1274.37 296H1409.38Z" fill="#E6E6E6"></path>
<path d="M1274.37 296L1288.91 270.836H1394.82L1409.38 296H1274.37Z" fill="#E6E6E6"></path>
<path d="M1394.82 321.86H1288.91C1288.66 321.86 1288.43 321.73 1288.31 321.508L1273.75 296.343C1273.63 296.13 1273.63 295.861 1273.75 295.648L1288.31 270.483C1288.43 270.27 1288.66 270.131 1288.91 270.131H1394.82C1395.07 270.131 1395.31 270.26 1395.43 270.483L1409.98 295.648C1410.1 295.861 1410.1 296.13 1409.98 296.343L1395.43 321.508C1395.31 321.721 1395.07 321.86 1394.82 321.86ZM1289.32 320.469H1394.42L1408.57 296L1394.42 271.531H1289.32L1275.18 296L1289.32 320.469Z" fill="#4F144A"></path>
<path d="M1394.82 321.86C1394.57 321.86 1394.34 321.73 1394.22 321.508L1379.66 296.343C1379.54 296.13 1379.54 295.861 1379.66 295.648L1394.22 270.483C1394.47 270.056 1395.18 270.056 1395.43 270.483L1409.98 295.648C1410.1 295.861 1410.1 296.13 1409.98 296.343L1395.43 321.508C1395.31 321.721 1395.07 321.86 1394.82 321.86ZM1381.08 296L1394.82 319.773L1408.57 296L1394.82 272.227L1381.08 296Z" fill="#4F144A"></path>
<path d="M1409.38 295.304H1274.37V296.696H1409.38V295.304Z" fill="#4F144A"></path>
<path d="M1799.46 296L1784.92 321.164H1679.01L1664.46 296H1799.46Z" fill="#E6E6E6"></path>
<path d="M1664.46 296L1679.01 270.836H1784.92L1799.46 296H1664.46Z" fill="#E6E6E6"></path>
<path d="M1784.92 321.86H1679.01C1678.76 321.86 1678.52 321.73 1678.4 321.508L1663.85 296.343C1663.73 296.13 1663.73 295.861 1663.85 295.648L1678.4 270.483C1678.52 270.27 1678.76 270.131 1679.01 270.131H1784.92C1785.17 270.131 1785.4 270.26 1785.52 270.483L1800.07 295.648C1800.2 295.861 1800.2 296.13 1800.07 296.343L1785.52 321.508C1785.4 321.721 1785.17 321.86 1784.92 321.86ZM1679.42 320.469H1784.52L1798.66 296L1784.52 271.531H1679.42L1665.27 296L1679.42 320.469Z" fill="#4F144A"></path>
<path d="M1784.92 321.86C1784.66 321.86 1784.43 321.73 1784.31 321.508L1769.76 296.343C1769.64 296.13 1769.64 295.861 1769.76 295.648L1784.31 270.483C1784.56 270.056 1785.27 270.056 1785.52 270.483L1800.07 295.648C1800.2 295.861 1800.2 296.13 1800.07 296.343L1785.52 321.508C1785.4 321.721 1785.17 321.86 1784.92 321.86ZM1771.17 296L1784.92 319.773L1798.66 296L1784.92 272.227L1771.17 296Z" fill="#4F144A"></path>
<path d="M1799.47 295.304H1664.46V296.696H1799.47V295.304Z" fill="#4F144A"></path>
<path d="M763.356 296L748.8 321.164H642.892L628.346 296H763.356Z" fill="#E6E6E6"></path>
<path d="M628.346 296L642.892 270.836H748.8L763.356 296H628.346Z" fill="#E6E6E6"></path>
<path d="M748.801 321.86H642.892C642.641 321.86 642.409 321.73 642.288 321.508L627.733 296.343C627.612 296.13 627.612 295.861 627.733 295.648L642.288 270.483C642.409 270.27 642.641 270.131 642.892 270.131H748.801C749.051 270.131 749.284 270.26 749.404 270.483L763.959 295.648C764.08 295.861 764.08 296.13 763.959 296.343L749.404 321.508C749.284 321.721 749.051 321.86 748.801 321.86ZM643.301 320.469H748.401L762.548 296L748.401 271.531H643.301L629.154 296L643.301 320.469Z" fill="#4F144A"></path>
<path d="M748.8 321.86C748.55 321.86 748.317 321.73 748.197 321.508L733.641 296.343C733.521 296.13 733.521 295.861 733.641 295.647L748.197 270.483C748.447 270.047 749.153 270.056 749.404 270.483L763.959 295.647C764.08 295.861 764.08 296.13 763.959 296.343L749.404 321.508C749.283 321.721 749.051 321.86 748.8 321.86ZM735.053 296L748.8 319.773L762.547 296L748.8 272.227L735.053 296Z" fill="#4F144A"></path>
<path d="M763.356 295.304H628.346V296.696H763.356V295.304Z" fill="#4F144A"></path>
<path d="M35.984 182.254H21.8932V196.325H35.984V182.254Z" fill="#4F144A"></path>
<path d="M35.9933 197.021H21.9025C21.5216 197.021 21.2058 196.706 21.2058 196.325V182.254C21.2058 181.874 21.5216 181.559 21.9025 181.559H35.9933C36.3741 181.559 36.6899 181.874 36.6899 182.254V196.325C36.6899 196.706 36.3741 197.021 35.9933 197.021ZM22.5898 195.63H35.2873V182.95H22.5898V195.63Z" fill="#4F144A"></path>
<path d="M237.927 182.254H223.837V196.325H237.927V182.254Z" fill="#4F144A"></path>
<path d="M237.937 197.021H223.846C223.465 197.021 223.149 196.706 223.149 196.325V182.254C223.149 181.874 223.465 181.559 223.846 181.559H237.937C238.318 181.559 238.633 181.874 238.633 182.254V196.325C238.633 196.706 238.318 197.021 237.937 197.021ZM224.533 195.63H237.231V182.95H224.533V195.63Z" fill="#4F144A"></path>
<path d="M142.115 288.236H128.025V302.307H142.115V288.236Z" fill="#4F144A"></path>
<path d="M142.116 303.003H128.025C127.644 303.003 127.328 302.688 127.328 302.307V288.236C127.328 287.856 127.644 287.541 128.025 287.541H142.116C142.496 287.541 142.812 287.856 142.812 288.236V302.307C142.812 302.688 142.496 303.003 142.116 303.003ZM128.721 301.612H141.419V288.932H128.721V301.612Z" fill="#4F144A"></path>
<path d="M322.556 288.236H308.465V302.307H322.556V288.236Z" fill="#4F144A"></path>
<path d="M322.556 303.003H308.465C308.084 303.003 307.768 302.688 307.768 302.307V288.236C307.768 287.856 308.084 287.541 308.465 287.541H322.556C322.937 287.541 323.252 287.856 323.252 288.236V302.307C323.252 302.688 322.937 303.003 322.556 303.003ZM309.162 301.612H321.859V288.932H309.162V301.612Z" fill="#4F144A"></path>
<path d="M322.556 395.675H308.465V409.746H322.556V395.675Z" fill="#4F144A"></path>
<path d="M322.556 410.441H308.465C308.084 410.441 307.768 410.126 307.768 409.746V395.675C307.768 395.294 308.084 394.979 308.465 394.979H322.556C322.937 394.979 323.252 395.294 323.252 395.675V409.746C323.252 410.126 322.937 410.441 322.556 410.441ZM309.162 409.05H321.859V396.37H309.162V409.05Z" fill="#4F144A"></path>
<path d="M608.329 395.675H594.238V409.746H608.329V395.675Z" fill="#4F144A"></path>
<path d="M608.329 410.441H594.238C593.857 410.441 593.542 410.126 593.542 409.746V395.675C593.542 395.294 593.857 394.979 594.238 394.979H608.329C608.71 394.979 609.026 395.294 609.026 395.675V409.746C609.026 410.126 608.71 410.441 608.329 410.441ZM594.935 409.05H607.632V396.37H594.935V409.05Z" fill="#4F144A"></path>
<path d="M767.062 353.425H752.971V367.496H767.062V353.425Z" fill="#4F144A"></path>
<path d="M767.062 368.201H752.971C752.59 368.201 752.274 367.885 752.274 367.505V353.434C752.274 353.054 752.59 352.738 752.971 352.738H767.062C767.443 352.738 767.758 353.054 767.758 353.434V367.505C767.758 367.885 767.443 368.201 767.062 368.201ZM753.668 366.809H766.365V354.13H753.668V366.809Z" fill="#4F144A"></path>
<path d="M608.329 289.349H594.238V303.42H608.329V289.349Z" fill="#4F144A"></path>
<path d="M608.329 304.125H594.238C593.857 304.125 593.542 303.81 593.542 303.43V289.359C593.542 288.978 593.857 288.663 594.238 288.663H608.329C608.71 288.663 609.026 288.978 609.026 289.359V303.43C609.026 303.81 608.71 304.125 608.329 304.125ZM594.935 302.734H607.632V290.054H594.935V302.734Z" fill="#4F144A"></path>
<path d="M1184.42 289.349H1170.33V303.42H1184.42V289.349Z" fill="#4F144A"></path>
<path d="M1184.42 304.125H1170.33C1169.95 304.125 1169.63 303.81 1169.63 303.43V289.359C1169.63 288.978 1169.95 288.663 1170.33 288.663H1184.42C1184.8 288.663 1185.11 288.978 1185.11 289.359V303.43C1185.11 303.81 1184.8 304.125 1184.42 304.125ZM1171.02 302.734H1183.72V290.054H1171.02V302.734Z" fill="#4F144A"></path>
<path d="M1438.58 289.349H1424.49V303.42H1438.58V289.349Z" fill="#4F144A"></path>
<path d="M1438.59 304.125H1424.5C1424.12 304.125 1423.8 303.81 1423.8 303.43V289.359C1423.8 288.978 1424.12 288.663 1424.5 288.663H1438.59C1438.97 288.663 1439.29 288.978 1439.29 289.359V303.43C1439.29 303.81 1438.97 304.125 1438.59 304.125ZM1425.19 302.734H1437.88V290.054H1425.19V302.734Z" fill="#4F144A"></path>
<path d="M702.896 190.602H688.805V204.673H702.896V190.602Z" fill="#4F144A"></path>
<path d="M702.896 205.369H688.805C688.424 205.369 688.109 205.054 688.109 204.673V190.602C688.109 190.222 688.424 189.907 688.805 189.907H702.896C703.277 189.907 703.593 190.222 703.593 190.602V204.673C703.593 205.054 703.277 205.369 702.896 205.369ZM689.502 203.978H702.199V191.298H689.502V203.978Z" fill="#4F144A"></path>
<path d="M237.927 395.675H223.837V409.746H237.927V395.675Z" fill="#4F144A"></path>
<path d="M237.937 410.441H223.846C223.465 410.441 223.149 410.126 223.149 409.746V395.675C223.149 395.294 223.465 394.979 223.846 394.979H237.937C238.318 394.979 238.633 395.294 238.633 395.675V409.746C238.633 410.126 238.318 410.441 237.937 410.441ZM224.533 409.05H237.231V396.37H224.533V409.05Z" fill="#4F144A"></path>
<path d="M421.73 180.947L437.354 189.295L421.73 197.643V180.947Z" fill="#4F144A"></path>
<path d="M421.73 198.338C421.61 198.338 421.48 198.301 421.368 198.236C421.154 198.106 421.034 197.884 421.034 197.643V180.947C421.034 180.705 421.164 180.474 421.368 180.353C421.582 180.232 421.842 180.223 422.055 180.334L437.679 188.682C437.902 188.803 438.05 189.035 438.05 189.295C438.05 189.554 437.911 189.786 437.679 189.907L422.055 198.255C421.953 198.31 421.842 198.338 421.73 198.338ZM422.427 182.106V196.483L435.877 189.295L422.427 182.106Z" fill="#4F144A"></path>
<path d="M636.947 180.947L652.57 189.295L636.947 197.643V180.947Z" fill="#4F144A"></path>
<path d="M636.947 198.338C636.826 198.338 636.696 198.301 636.585 198.236C636.371 198.106 636.25 197.884 636.25 197.643V180.947C636.25 180.705 636.381 180.474 636.585 180.353C636.799 180.232 637.059 180.223 637.272 180.334L652.896 188.682C653.119 188.803 653.267 189.035 653.267 189.295C653.267 189.554 653.128 189.786 652.896 189.907L637.272 198.255C637.17 198.31 637.059 198.338 636.947 198.338ZM637.644 182.106V196.483L651.094 189.295L637.644 182.106Z" fill="#4F144A"></path>
<path d="M482.338 287.986L497.962 296.334L482.338 304.682V287.986Z" fill="#4F144A"></path>
<path d="M482.338 305.378C482.217 305.378 482.087 305.34 481.976 305.275C481.762 305.146 481.642 304.923 481.642 304.682V287.986C481.642 287.745 481.772 287.513 481.976 287.392C482.19 287.272 482.45 287.262 482.663 287.374L498.287 295.722C498.51 295.842 498.658 296.074 498.658 296.334C498.658 296.594 498.519 296.826 498.287 296.946L482.663 305.294C482.561 305.35 482.45 305.378 482.338 305.378ZM483.035 289.145V303.522L496.485 296.334L483.035 289.145Z" fill="#4F144A"></path>
<path d="M495.073 287.986L510.696 296.334L495.073 304.682V287.986Z" fill="#4F144A"></path>
<path d="M495.073 305.378C494.952 305.378 494.822 305.34 494.711 305.275C494.497 305.146 494.376 304.923 494.376 304.682V287.986C494.376 287.745 494.506 287.513 494.711 287.392C494.924 287.272 495.185 287.262 495.398 287.374L511.022 295.722C511.245 295.842 511.393 296.074 511.393 296.334C511.393 296.594 511.254 296.826 511.022 296.946L495.398 305.294C495.296 305.35 495.185 305.378 495.073 305.378ZM495.77 289.145V303.522L509.22 296.334L495.77 289.145Z" fill="#4F144A"></path>
<path d="M36.4908 195.833L35.5056 196.817L135.767 296.936L136.752 295.953L36.4908 195.833Z" fill="#4F144A"></path>
<path d="M316.212 295.267H314.818V402.705H316.212V295.267Z" fill="#4F144A"></path>
<path d="M602.041 302.307H600.647V402.705H602.041V302.307Z" fill="#4F144A"></path>
<path d="M1721.99 296.696H901.05C876.881 296.696 853.306 292.011 830.977 282.773C808.647 273.535 788.658 260.206 771.567 243.139C754.606 226.202 734.775 212.966 712.612 203.801C690.449 194.637 667.051 189.99 643.068 189.99H-1.96924V188.599H643.078C667.247 188.599 690.821 193.283 713.151 202.521C735.481 211.76 755.47 225.089 772.561 242.156C789.522 259.093 809.353 272.329 831.515 281.493C853.678 290.657 877.076 295.304 901.059 295.304H1722V296.696H1721.99Z" fill="#4F144A"></path>
<path d="M643.068 403.401H-3.78052V402.01H643.078C667.061 402.01 690.459 397.363 712.621 388.199C734.784 379.034 754.615 365.798 771.576 348.861C788.667 331.794 808.656 318.456 830.986 309.227C853.316 299.988 876.89 295.304 901.059 295.304H1920.01V296.696H901.05C877.067 296.696 853.669 301.343 831.506 310.507C809.344 319.671 789.512 332.907 772.551 349.844C755.46 366.911 735.471 380.249 713.141 389.488C690.812 398.726 667.237 403.41 643.068 403.41V403.401Z" fill="#4F144A"></path>
<path d="M931.331 295.304H-1.96924V296.696H931.331V295.304Z" fill="#4F144A"></path>
<path d="M1058.18 175.836L1057.19 176.82L1176.88 296.341L1177.86 295.357L1058.18 175.836Z" fill="#4F144A"></path>
<path d="M1618.4 303.43H1632.49V289.359H1618.4V303.43Z" fill="#4F144A"></path>
<path d="M1632.49 304.125H1618.4C1618.02 304.125 1617.7 303.81 1617.7 303.43V289.359C1617.7 288.978 1618.02 288.663 1618.4 288.663H1632.49C1632.87 288.663 1633.19 288.978 1633.19 289.359V303.43C1633.19 303.81 1632.87 304.125 1632.49 304.125ZM1619.1 302.734H1631.79V290.054H1619.1V302.734Z" fill="#4F144A"></path>
<path d="M1744.64 175.837L1624.95 295.358L1625.93 296.342L1745.62 176.821L1744.64 175.837Z" fill="#4F144A"></path>
<path d="M1102.71 176.332C1102.71 151.5 1082.55 131.369 1057.68 131.369C1032.81 131.369 1012.65 151.5 1012.65 176.332C1012.65 201.164 1032.81 221.295 1057.68 221.295C1082.55 221.295 1102.71 201.164 1102.71 176.332Z" fill="white"></path>
<path d="M1057.68 221.991C1032.47 221.991 1011.96 201.51 1011.96 176.327C1011.96 151.144 1032.46 130.664 1057.68 130.664C1082.9 130.664 1103.41 151.144 1103.41 176.327C1103.41 201.51 1082.9 221.991 1057.68 221.991ZM1057.68 132.065C1033.24 132.065 1013.35 151.924 1013.35 176.337C1013.35 200.75 1033.24 220.609 1057.68 220.609C1082.13 220.609 1102.02 200.75 1102.02 176.337C1102.02 151.924 1082.13 132.065 1057.68 132.065Z" fill="#4F144A"></path>
<path d="M1057.68 141.396V176.337L1030.9 153.853C1037.32 146.238 1046.94 141.396 1057.68 141.396Z" fill="url(#paint0_linear_28_9958)"></path>
<path d="M1088.61 192.68C1082.73 203.737 1071.09 211.268 1057.67 211.268C1044.26 211.268 1032.61 203.737 1026.74 192.68L1057.67 176.327L1088.61 192.68Z" fill="#E8ADE3"></path>
<path d="M1092.67 176.337C1092.67 182.245 1091.21 187.801 1088.61 192.689L1057.68 176.337V141.396C1077 141.396 1092.67 157.044 1092.67 176.337Z" fill="#C533B9"></path>
<path d="M1057.68 176.337L1026.75 192.689C1024.15 187.81 1022.69 182.245 1022.69 176.337C1022.69 167.775 1025.79 159.919 1030.9 153.853L1057.68 176.337Z" fill="#4F144A"></path>
<path d="M1433.94 295.906L1347.1 382.626L1348.08 383.61L1434.93 296.889L1433.94 295.906Z" fill="#4F144A"></path>
<g style="mix-blend-mode:multiply" opacity="0.5">
<path d="M1057.68 141.387C1046.94 141.387 1037.32 146.228 1030.9 153.844C1025.79 159.91 1022.69 167.766 1022.69 176.337C1022.69 182.245 1024.16 187.81 1026.75 192.689C1032.62 203.755 1044.27 211.287 1057.68 211.287C1071.1 211.287 1082.74 203.755 1088.61 192.689C1091.22 187.81 1092.67 182.245 1092.67 176.337C1092.67 157.034 1077 141.387 1057.67 141.387H1057.68Z" fill="#C533B9"></path>
</g>
<path d="M1364.89 365.826H1267.75V462.829H1364.89V365.826Z" fill="white"></path>
<path d="M1364.89 463.534H1267.75C1267.37 463.534 1267.06 463.219 1267.06 462.839V365.835C1267.06 365.455 1267.37 365.14 1267.75 365.14H1364.89C1365.28 365.14 1365.59 365.455 1365.59 365.835V462.839C1365.59 463.219 1365.28 463.534 1364.89 463.534ZM1268.45 462.143H1364.2V366.531H1268.45V462.143Z" fill="#4F144A"></path>
<path d="M1333.63 414.328H1316.32V431.608H1333.63V414.328Z" fill="#FCAF4F"></path>
<path d="M1299.01 379.767H1281.71V397.047H1299.01V379.767Z" fill="#761F6F"></path>
<path d="M1316.32 379.767H1299.02V397.047H1316.32V379.767Z" fill="#DC85D5"></path>
<path d="M1333.63 379.767H1316.32V397.047H1333.63V379.767Z" fill="#FCAF4F"></path>
<path d="M1350.93 379.767H1333.63V397.047H1350.93V379.767Z" fill="#D15CC7"></path>
<path d="M1350.93 379.767H1333.63V397.047H1350.93V379.767Z" fill="#C533B9"></path>
<path d="M1350.93 414.328H1333.63V431.608H1350.93V414.328Z" fill="#C533B9"></path>
<path d="M1333.63 379.767H1316.32V397.047H1333.63V379.767Z" fill="#F98410"></path>
<path d="M1333.63 414.328H1316.32V431.608H1333.63V414.328Z" fill="#F98410"></path>
<path d="M1333.63 414.328H1316.32V431.608H1333.63V414.328Z" fill="#F98410"></path>
<path d="M1316.32 379.767H1299.02V397.047H1316.32V379.767Z" fill="#D15CC7"></path>
<path d="M1299.01 379.767H1281.71V397.047H1299.01V379.767Z" fill="#4F144A"></path>
<path d="M1299.01 397.047H1281.71V414.328H1299.01V397.047Z" fill="#D15CC7"></path>
<path d="M1316.32 397.047H1299.02V414.328H1316.32V397.047Z" fill="#C533B9"></path>
<path d="M1333.63 397.047H1316.32V414.328H1333.63V397.047Z" fill="#9E2994"></path>
<path d="M1350.93 397.047H1333.63V414.328H1350.93V397.047Z" fill="url(#paint1_linear_28_9958)"></path>
<path d="M1299.01 414.328H1281.71V431.608H1299.01V414.328Z" fill="#E8ADE3"></path>
<path d="M1316.32 414.328H1299.02V431.608H1316.32V414.328Z" fill="#360E3B"></path>
<path d="M1350.93 414.328H1333.63V431.608H1350.93V414.328Z" fill="#C533B9"></path>
<path d="M1333.63 431.608H1316.32V448.888H1333.63V431.608Z" fill="#4F144A"></path>
<path d="M1350.93 431.608H1333.63V448.888H1350.93V431.608Z" fill="#E8ADE3"></path>
<path d="M1316.32 431.608H1281.71V448.888H1316.32V431.608Z" fill="url(#paint2_linear_28_9958)"></path>
<path d="M1350.93 397.047H1333.63V414.328H1350.93V397.047Z" fill="#EE1053"></path>
<path d="M1316.32 431.608H1281.71V448.888H1316.32V431.608Z" fill="#EE1053"></path>
<path d="M1333.63 397.047H1316.32V414.328H1333.63V397.047Z" fill="#761F6F"></path>
<path d="M1316.32 397.047H1299.02V414.328H1316.32V397.047Z" fill="#9E2994"></path>
<path d="M1350.93 414.328H1333.63V431.608H1350.93V414.328Z" fill="#9E2994"></path>
<path d="M1299.01 397.047H1281.71V414.328H1299.01V397.047Z" fill="#DC85D5"></path>
<path d="M1299.01 414.328H1281.71V431.608H1299.01V414.328Z" fill="#DC85D5"></path>
<path d="M1350.93 431.608H1333.63V448.888H1350.93V431.608Z" fill="#DC85D5"></path>
<path d="M1810.81 206.037L1763.02 233.585L1715.23 206.037V150.931L1763.02 123.374L1810.81 150.931V206.037Z" fill="white"></path>
<path d="M1763.02 234.281C1762.9 234.281 1762.78 234.253 1762.67 234.188L1714.88 206.63C1714.67 206.51 1714.53 206.278 1714.53 206.028V150.922C1714.53 150.671 1714.66 150.439 1714.88 150.319L1762.67 122.761C1762.88 122.641 1763.15 122.641 1763.37 122.761L1811.16 150.319C1811.37 150.439 1811.51 150.671 1811.51 150.922V206.028C1811.51 206.278 1811.38 206.51 1811.16 206.63L1763.37 234.188C1763.25 234.253 1763.13 234.281 1763.01 234.281H1763.02ZM1715.93 205.629L1763.02 232.778L1810.12 205.629V151.321L1763.02 124.171L1715.93 151.321V205.629Z" fill="#4F144A"></path>
<path d="M1763.02 178.489V217.724L1728.99 198.097V158.862L1763.02 178.489Z" fill="url(#paint3_linear_28_9958)"></path>
<path d="M1797.06 158.862V198.097L1763.02 217.724V178.489L1797.06 158.862Z" fill="#4F144A"></path>
<path d="M1797.06 158.862L1763.02 178.489L1728.99 158.862L1763.02 139.235L1797.06 158.862Z" fill="#C533B9"></path>
<path style="mix-blend-mode:multiply" d="M1763.02 178.489V217.724L1728.99 198.097V158.862L1763.02 178.489Z" fill="url(#paint4_linear_28_9958)"></path>
<g style="mix-blend-mode:multiply" opacity="0.5">
<path d="M1763.02 139.244L1797.05 158.862L1763.01 178.479L1728.99 158.862L1763.02 139.244Z" fill="#C533B9"></path>
</g>
<g opacity="0.5">
<path d="M1420.87 434.131C1419.46 434.131 1418.04 433.927 1416.65 433.519C1412.84 432.396 1409.7 429.864 1407.81 426.395C1403.89 419.216 1406.55 410.191 1413.74 406.286C1417.23 404.394 1421.24 403.967 1425.04 405.08C1428.84 406.193 1431.99 408.734 1433.88 412.204C1435.78 415.682 1436.2 419.689 1435.09 423.483C1433.96 427.276 1431.43 430.421 1427.95 432.313C1425.74 433.519 1423.32 434.131 1420.87 434.131ZM1420.83 405.859C1418.61 405.859 1416.42 406.416 1414.41 407.501C1407.9 411.044 1405.49 419.216 1409.03 425.727C1410.75 428.881 1413.59 431.172 1417.04 432.183C1420.49 433.194 1424.13 432.814 1427.28 431.098C1430.43 429.382 1432.73 426.543 1433.74 423.102C1434.75 419.661 1434.37 416.025 1432.65 412.881C1430.93 409.727 1428.08 407.436 1424.64 406.425C1423.38 406.054 1422.09 405.868 1420.82 405.868L1420.83 405.859Z" fill="#F98410"></path>
</g>
<g opacity="0.25">
<path d="M1405.28 434.122C1400.01 434.122 1394.92 431.32 1392.22 426.395C1388.3 419.216 1390.97 410.2 1398.16 406.286C1401.64 404.394 1405.65 403.967 1409.45 405.08C1413.26 406.202 1416.4 408.734 1418.29 412.204C1422.21 419.383 1419.55 428.399 1412.36 432.313C1410.11 433.537 1407.68 434.122 1405.28 434.122ZM1405.24 405.859C1403.02 405.859 1400.83 406.416 1398.83 407.501C1392.31 411.044 1389.9 419.225 1393.45 425.727C1397 432.229 1405.19 434.641 1411.7 431.098C1418.21 427.554 1420.63 419.373 1417.08 412.871C1415.36 409.718 1412.52 407.427 1409.06 406.416C1407.81 406.045 1406.52 405.859 1405.24 405.859Z" fill="#F98410"></path>
</g>
<path d="M1048.98 340.012H1032.81V356.161H1048.98V340.012Z" fill="#C533B9"></path>
<path d="M1064.89 355.911H1048.72V372.059H1064.89V355.911Z" fill="#4F144A"></path>
<path d="M1409.51 220.071H1393.34V236.219H1409.51V220.071Z" fill="#C533B9"></path>
<path d="M1420.85 208.736H1409.73V219.839H1420.85V208.736Z" fill="#F98410"></path>
<path d="M1425.42 235.969H1409.25V252.118H1425.42V235.969Z" fill="#4F144A"></path>
<path d="M1713.76 384.127C1713.66 384.127 1713.58 384.108 1713.49 384.071C1713.23 383.96 1713.06 383.709 1713.06 383.431V376.02H1648.51V374.628H1713.76C1714.14 374.628 1714.45 374.944 1714.45 375.324V381.743L1727.8 368.414L1714.45 355.085V361.504C1714.45 361.884 1714.14 362.199 1713.76 362.199H1625.44V360.808H1713.06V353.397C1713.06 353.119 1713.23 352.859 1713.49 352.757C1713.75 352.655 1714.04 352.71 1714.25 352.905L1729.28 367.913C1729.55 368.182 1729.55 368.627 1729.28 368.896L1714.25 383.904C1714.12 384.034 1713.93 384.108 1713.76 384.108V384.127Z" fill="#4F144A"></path>
</g>
<defs>
<linearGradient id="paint0_linear_28_9958" x1="1030.9" y1="158.862" x2="1057.68" y2="158.862" gradientUnits="userSpaceOnUse">
<stop stop-color="#EC0053"></stop>
<stop offset="1" stop-color="#FCAF4F"></stop>
</linearGradient>
<linearGradient id="paint1_linear_28_9958" x1="1333.63" y1="405.692" x2="1350.93" y2="405.692" gradientUnits="userSpaceOnUse">
<stop stop-color="#FCAF4F"></stop>
<stop offset="1" stop-color="#EC0053"></stop>
</linearGradient>
<linearGradient id="paint2_linear_28_9958" x1="1281.72" y1="440.253" x2="1316.32" y2="440.253" gradientUnits="userSpaceOnUse">
<stop stop-color="#FCAF4F"></stop>
<stop offset="1" stop-color="#EC0053"></stop>
</linearGradient>
<linearGradient id="paint3_linear_28_9958" x1="1728.99" y1="188.293" x2="1763.02" y2="188.293" gradientUnits="userSpaceOnUse">
<stop stop-color="#EC0053"></stop>
<stop offset="1" stop-color="#FCAF4F"></stop>
</linearGradient>
<linearGradient id="paint4_linear_28_9958" x1="1728.99" y1="188.293" x2="1763.02" y2="188.293" gradientUnits="userSpaceOnUse">
<stop stop-color="#EC0053"></stop>
<stop offset="1" stop-color="#FCAF4F"></stop>
</linearGradient>
<clipPath id="clip0_28_9958">
<rect width="1920" height="592" fill="white"></rect>
</clipPath>
</defs>
</svg>
